<svg xmlns="http://www.w3.org/2000/svg" width="506.55" height="466.068" viewBox="0 0 506.55 466.068">
  <defs>
    <style>
      .cls-1 {
        fill: #3f3d56;
      }

      .cls-2 {
        fill: #343a40;
      }

      #bg {
        fill: rgb(230, 230, 230);

      }
    </style>
  </defs>
  <g id="logo" transform="translate(-3470 -9)">
    <path id="bg" class="cls-1"
      d="M598.014,399.437C595.532,543,491.076,540.587,361.664,540.587c-2.989-.052-5.963.106-8.922,0-5.962-.208-11.859-1.258-17.693-1.7C219.028,530.153,129.7,524.9,132.01,391.38,134.4,253.207,376.075,34.075,376.075,34.075S600.5,255.881,598.014,399.437Z"
      transform="translate(4010.625 -122.966) rotate(90)" />
    <path id="music-guy" class="cls-2"
      d="M156.185,212.8c-6.237,14.217-7.463,16.61-8.463,19.1-7.358,18.578,6.54,37.058,19.678,42.262s29.754-5.639,37.112-24.217c7.258-18.325-10.823-50.462-39.892-58.607s-89.011-21.226-89.011-21.226l53.285-134.54L121,32.443l-53.3,134.591-11.532-4.483L109.671,27.435l1.41.6L215.936,77.78l.819.741-5.623,13.8a43.84,43.84,0,0,0-3.664,7.148c-7.358,18.579,6.54,37.059,19.678,42.262s29.754-5.639,37.112-24.217c4.318-10.9,2.756-39.864-36.535-62.457,0,0-15.622-10.268-51.356-28.461-37.179-15.082-63.243-35.478-103-23.915C12.846,20.281-15.651,94.506,8.683,147.958S115.394,206.372,156.185,212.8Z"
      transform="translate(3725.419 81.076) rotate(66)" />
    <g id="headphones" transform="translate(3551.499 100.279)">
      <path id="Path_62" data-name="Path 62" class="cls-2"
        d="M0,0H0A29.531,29.531,0,0,1,29.531,29.531V44.3A29.531,29.531,0,0,1,0,73.828H0Z"
        transform="translate(29.531 154.429) rotate(180)" />
      <path id="Path_63" data-name="Path 63" class="cls-2"
        d="M598.3,444.248h0a29.531,29.531,0,0,1,29.532,29.532v14.765A29.531,29.531,0,0,1,598.3,518.077h0V444.248Z"
        transform="translate(-383.283 -363.647)" />
      <path id="Path_64" data-name="Path 64" class="cls-2"
        d="M632.6,486.847h-4.686a107.767,107.767,0,0,0-215.534,0H407.7a112.453,112.453,0,1,1,224.905,0Z"
        transform="translate(-399.105 -374.394)" />
    </g>
  </g>
</svg>